<svg width="229" height="230" viewBox="0 0 229 230" fill="none" xmlns="http://www.w3.org/2000/svg">
<mask id="path-1-inside-1_263_998" fill="white">
<path fill-rule="evenodd" clip-rule="evenodd" d="M4.28935 0.735936C3.3081 -0.245312 1.71718 -0.245312 0.735936 0.735936C-0.245311 1.71718 -0.245313 3.3081 0.735935 4.28935L204.483 208.036C202.836 210.282 201.863 213.053 201.863 216.051C201.863 223.545 207.938 229.62 215.432 229.62C222.925 229.62 229 223.545 229 216.051C229 208.558 222.925 202.483 215.432 202.483C212.753 202.483 210.256 203.259 208.152 204.599L4.28935 0.735936Z"/>
</mask>
<path fill-rule="evenodd" clip-rule="evenodd" d="M4.28935 0.735936C3.3081 -0.245312 1.71718 -0.245312 0.735936 0.735936C-0.245311 1.71718 -0.245313 3.3081 0.735935 4.28935L204.483 208.036C202.836 210.282 201.863 213.053 201.863 216.051C201.863 223.545 207.938 229.62 215.432 229.62C222.925 229.62 229 223.545 229 216.051C229 208.558 222.925 202.483 215.432 202.483C212.753 202.483 210.256 203.259 208.152 204.599L4.28935 0.735936Z" fill="#1B57A6" fill-opacity="0.6"/>
<path d="M0.735936 0.735936L0.0288297 0.0288288L0.0288297 0.0288288L0.735936 0.735936ZM4.28935 0.735936L4.99646 0.0288289L4.99645 0.0288288L4.28935 0.735936ZM0.735935 4.28935L0.0288279 4.99645H0.0288279L0.735935 4.28935ZM204.483 208.036L205.289 208.628L205.797 207.936L205.19 207.329L204.483 208.036ZM208.152 204.599L207.445 205.306L208.013 205.874L208.69 205.442L208.152 204.599ZM1.44304 1.44304C2.03377 0.852319 2.99152 0.852319 3.58224 1.44304L4.99645 0.0288288C3.62468 -1.34294 1.4006 -1.34294 0.0288297 0.0288288L1.44304 1.44304ZM1.44304 3.58224C0.852319 2.99152 0.852319 2.03377 1.44304 1.44304L0.0288297 0.0288288C-1.34294 1.4006 -1.34294 3.62468 0.0288279 4.99645L1.44304 3.58224ZM205.19 207.329L1.44304 3.58224L0.0288279 4.99645L203.776 208.743L205.19 207.329ZM202.863 216.051C202.863 213.273 203.764 210.708 205.289 208.628L203.676 207.445C201.908 209.856 200.863 212.833 200.863 216.051H202.863ZM215.432 228.62C208.49 228.62 202.863 222.993 202.863 216.051H200.863C200.863 224.097 207.386 230.62 215.432 230.62V228.62ZM228 216.051C228 222.993 222.373 228.62 215.432 228.62V230.62C223.478 230.62 230 224.097 230 216.051H228ZM215.432 203.483C222.373 203.483 228 209.11 228 216.051H230C230 208.006 223.478 201.483 215.432 201.483V203.483ZM208.69 205.442C210.637 204.202 212.949 203.483 215.432 203.483V201.483C212.557 201.483 209.874 202.317 207.615 203.756L208.69 205.442ZM3.58224 1.44304L207.445 205.306L208.86 203.892L4.99646 0.0288289L3.58224 1.44304Z" fill="black" mask="url(#path-1-inside-1_263_998)"/>
</svg>
