<svg width="380" height="381" viewBox="0 0 380 381" fill="none" xmlns="http://www.w3.org/2000/svg">
<mask id="path-1-inside-1_263_995" fill="white">
<path fill-rule="evenodd" clip-rule="evenodd" d="M7.11717 1.22111C5.48902 -0.407038 2.84926 -0.407037 1.22111 1.22111C-0.407036 2.84926 -0.407039 5.48901 1.22111 7.11716L339.291 345.187C336.559 348.914 334.945 353.512 334.945 358.487C334.945 370.92 345.025 381 357.458 381C369.892 381 379.972 370.92 379.972 358.487C379.972 346.053 369.892 335.973 357.458 335.973C353.014 335.973 348.87 337.261 345.38 339.484L7.11717 1.22111Z"/>
</mask>
<path fill-rule="evenodd" clip-rule="evenodd" d="M7.11717 1.22111C5.48902 -0.407038 2.84926 -0.407037 1.22111 1.22111C-0.407036 2.84926 -0.407039 5.48901 1.22111 7.11716L339.291 345.187C336.559 348.914 334.945 353.512 334.945 358.487C334.945 370.92 345.025 381 357.458 381C369.892 381 379.972 370.92 379.972 358.487C379.972 346.053 369.892 335.973 357.458 335.973C353.014 335.973 348.87 337.261 345.38 339.484L7.11717 1.22111Z" fill="#2493BF" fill-opacity="0.6"/>
<path d="M7.11717 1.22111L6.41006 1.92822L7.11717 1.22111ZM1.22111 7.11716L0.514004 7.82427H0.514004L1.22111 7.11716ZM339.291 345.187L340.098 345.779L340.605 345.087L339.998 344.48L339.291 345.187ZM345.38 339.484L344.673 340.191L345.241 340.759L345.917 340.328L345.38 339.484ZM1.92822 1.92822C3.16585 0.690594 5.17243 0.690594 6.41006 1.92822L7.82427 0.514005C5.8056 -1.50467 2.53268 -1.50467 0.514007 0.514006L1.92822 1.92822ZM1.92822 6.41005C0.690593 5.17243 0.690594 3.16585 1.92822 1.92822L0.514007 0.514006C-1.50467 2.53268 -1.50467 5.80559 0.514004 7.82427L1.92822 6.41005ZM339.998 344.48L1.92822 6.41005L0.514004 7.82427L338.584 345.894L339.998 344.48ZM335.945 358.487C335.945 353.731 337.487 349.339 340.098 345.779L338.485 344.596C335.631 348.488 333.945 353.292 333.945 358.487H335.945ZM357.458 380C345.577 380 335.945 370.368 335.945 358.487H333.945C333.945 371.473 344.472 382 357.458 382V380ZM378.972 358.487C378.972 370.368 369.34 380 357.458 380V382C370.444 382 380.972 371.473 380.972 358.487H378.972ZM357.458 336.973C369.34 336.973 378.972 346.605 378.972 358.487H380.972C380.972 345.501 370.444 334.973 357.458 334.973V336.973ZM345.917 340.328C349.252 338.204 353.21 336.973 357.458 336.973V334.973C352.818 334.973 348.489 336.319 344.843 338.641L345.917 340.328ZM6.41006 1.92822L344.673 340.191L346.087 338.777L7.82427 0.514005L6.41006 1.92822Z" fill="black" mask="url(#path-1-inside-1_263_995)"/>
</svg>
